# xmcd CD database file
#
# Track frame offsets:
#	150
#	13095
#	26034
#	39007
#	55481
#	69620
#	81762
#	92781
#	102611
#	114837
#	125889
#	139860
#	153328
#	166837
#	177341
#	189490
#	201936
#	213593
#	225059
#	236031
#	247545
#	265520
#	278028
#	293023
#	305926
#	317766
#
# Disc length: 4392 seconds
#
# Revision: 2
# Processed by: cddbd v1.5.2PL0 Copyright (c) Steve Scherf et al.
# Submitted via: CDex 1.51
#
DISCID=6a11261a
DTITLE=Various Artist - Caiga Quien Caiga II (53 Clásicos originales del Rhythm and Blues) -- Disco dos
DYEAR=1900
DGENRE=
TTITLE0=THE BLUES BROTHERS - Messin' With The Kid
TTITLE1=OTIS REDDING - My Girl
TTITLE2=RUTH BROWN - Mama, He Treats Your Daughter Mean
TTITLE3=RAY CHARLES - Come Rain Or Come Shine
TTITLE4=ARETHA FRANKLIN - Rock Steady
TTITLE5=OTIS REDDING - Satisfaction
TTITLE6=SAM and DAVE - Soul Sister, Brown Sugar
TTITLE7=BOBBETES - I Shot Mr.Lee
TTITLE8=CARLA and RUFUS - Cause I Love You
TTITLE9=THE RASCALS - Groovin'
TTITLE10=BEN E. KING - Will You Still Love me Tomorow
TTITLE11=BIG JOE TURNER - Shake, Rattle and Roll
TTITLE12=THE COASTERS - Riot In Cell Block 9
TTITLE13=CARLA THOMAS - Gee Whiz
TTITLE14=BAR-KAYS - A Hard Day's Night
TTITLE15=ALBERT KING - Born Under A Bad Sign
TTITLE16=THE DRIFTERS - Up On The Roof
TTITLE17=OTIS REDDING - Mr.Pitlful
TTITLE18=BOOKER T AND THE MG'S - Jelly Bread
TTITLE19=WILSON PICKET - If You Need Me
TTITLE20=PERCY SLEDGE - Drown In My Own Tears
TTITLE21=SOLOMON BURKE - Tonight's The Night
TTITLE22=ARETHA FRANKLIN - Dr. Feelgood (Love Is a Serious Thing)
TTITLE23=BEN E. KING - Don't Play That Song (You Lied)
TTITLE24=WILSON PICKET - Nine-nine And A Half (Won't Do)
TTITLE25=OTIS REDDING - Shake
EXTD=
EXTT0=
EXTT1=
EXTT2=
EXTT3=
EXTT4=
EXTT5=
EXTT6=
EXTT7=
EXTT8=
EXTT9=
EXTT10=
EXTT11=
EXTT12=
EXTT13=
EXTT14=
EXTT15=
EXTT16=
EXTT17=
EXTT18=
EXTT19=
EXTT20=
EXTT21=
EXTT22=
EXTT23=
EXTT24=
EXTT25=
PLAYORDER=
